
        <svg xmlns="http://www.w3.org/2000/svg" viewBox="0 0 512 512" width="100%" height="100%">
          <defs>
            
          </defs>
          
          <defs>
            <linearGradient id="bgGrad" x1="0%" y1="0%" x2="100%" y2="100%">
              <stop offset="0%" stop-color="#4CAF50"></stop>
              <stop offset="100%" stop-color="#2e7d32"></stop>
            </linearGradient>
          </defs>
          <path d="M 256 0 
              L 410 0 
              C 466.1 0, 512 45.9, 512 102 
              L 512 410 
              C 512 466.1, 466.1 512, 410 512 
              L 102 512 
              C 45.9 512, 0 466.1, 0 410 
              L 0 102 
              C 0 45.9, 45.9 0, 102 0 
              Z" fill="url(#bgGrad)" style="filter: drop-shadow(0px 8px 16px rgba(0,0,0,0.25)) drop-shadow(0px 4px 8px rgba(0,0,0,0.15)); transition: all 0.3s ease;"></path>
          <g transform="translate(0, 0) scale(1)">
            <!-- Render precise document outline with elegant gap on bottom-left for brackets -->
            <path d="M 170,250 L 170,120 C 170,114 174,110 180,110 L 290,110 L 360,180 L 360,380 C 360,386 356,390 350,390 L 230,390" fill="none" stroke="#000000" stroke-width="12" stroke-linecap="round" stroke-linejoin="round"></path>
            
            <!-- Render folded corner -->
            <path d="M 290,110 L 290,180 L 360,180" fill="none" stroke="#000000" stroke-width="12" stroke-linecap="round" stroke-linejoin="round"></path>

            <!-- Recreated perfectly-placed Overlapping Brackets at Bottom Left Corner -->
            <!-- Left Bracket '<' -->
            <path d="M 185,315 L 140,350 L 185,385" fill="none" stroke="#000000" stroke-width="13" stroke-linecap="round" stroke-linejoin="round"></path>
            
            <!-- Right Bracket '>' -->
            <path d="M 210,315 L 255,350 L 210,385" fill="none" stroke="#000000" stroke-width="13" stroke-linecap="round" stroke-linejoin="round"></path>
          </g>
        </svg>
      